<svg width="590" height="50" viewBox="0 0 590 50" fill="none" xmlns="http://www.w3.org/2000/svg">
<path d="M525 20V25H505H485V20H405V25H380V20H115V25H100H85V20H0V50H590V20H525Z" fill="#EAAC68"/>
<path opacity="0.75" d="M0 45L590 45V40L0 40V45Z" fill="#D88A3D"/>
<path d="M0 50L590 50V45L0 45V50Z" fill="#D88A3D"/>
<path opacity="0.5" d="M0 40L590 40V35L0 35V40Z" fill="#D88A3D"/>
<path opacity="0.25" d="M0 35L590 35V30L0 30V35Z" fill="#D88A3D"/>
<path d="M80 15H0V20H80V15Z" fill="#D88A3D"/>
<path d="M70 10H15V15H70V10Z" fill="#D88A3D"/>
<path d="M60 5H25V10H60V5Z" fill="#D88A3D"/>
<path d="M35 0H30V5H35H40V0H35Z" fill="#D88A3D"/>
<path d="M45 0H40V5H45H50V0H45Z" fill="#D88A3D"/>
<path d="M40 15H25V20H40H55V15H40Z" fill="#C97A32"/>
<path d="M60 5H45V10H60V5Z" fill="#E5A35D"/>
<path d="M50 0H35V5H50V0Z" fill="#E5A35D"/>
<path d="M70 10H55V15H70V10Z" fill="#E5A35D"/>
<path d="M80 15H65V20H80V15Z" fill="#E5A35D"/>
<path d="M50 0H45V5H50V0Z" fill="#EAAC68"/>
<path d="M60 5H55V10H60V5Z" fill="#EAAC68"/>
<path d="M70 10H65V15H70V10Z" fill="#EAAC68"/>
<path d="M80 15H75V20H80V15Z" fill="#EAAC68"/>
<path d="M45 10H40V15H45V10Z" fill="#C97A32"/>
<path d="M340 15H270V20H340V15Z" fill="#D88A3D"/>
<path d="M330 10H275V15H330V10Z" fill="#D88A3D"/>
<path d="M320 5H285V10H320V5Z" fill="#D88A3D"/>
<path d="M295 0H290V5H295H300V0H295Z" fill="#D88A3D"/>
<path d="M305 0H300V5H305H310V0H305Z" fill="#D88A3D"/>
<path d="M295 15H275V20H295H315V15H295Z" fill="#C97A32"/>
<path d="M320 5H305V10H320V5Z" fill="#E5A35D"/>
<path d="M310 0H295V5H310V0Z" fill="#E5A35D"/>
<path d="M330 10H315V15H330V10Z" fill="#E5A35D"/>
<path d="M340 15H325V20H340V15Z" fill="#E5A35D"/>
<path d="M310 0H305V5H310V0Z" fill="#EAAC68"/>
<path d="M320 5H315V10H320V5Z" fill="#EAAC68"/>
<path d="M330 10H325V15H330V10Z" fill="#EAAC68"/>
<path d="M340 15H335V20H340V15Z" fill="#EAAC68"/>
<path d="M305 10H300V15H305V10Z" fill="#C97A32"/>
<path d="M290 10H285V15H290V10Z" fill="#C97A32"/>
<path d="M480 15H410V20H480V15Z" fill="#D88A3D"/>
<path d="M470 10H415V15H470V10Z" fill="#D88A3D"/>
<path d="M460 5H425V10H460V5Z" fill="#D88A3D"/>
<path d="M435 0H430V5H435H440V0H435Z" fill="#D88A3D"/>
<path d="M445 0H440V5H445H450V0H445Z" fill="#D88A3D"/>
<path d="M435 15H415V20H435H455V15H435Z" fill="#C97A32"/>
<path d="M460 5H445V10H460V5Z" fill="#E5A35D"/>
<path d="M450 0H435V5H450V0Z" fill="#E5A35D"/>
<path d="M470 10H455V15H470V10Z" fill="#E5A35D"/>
<path d="M480 15H465V20H480V15Z" fill="#E5A35D"/>
<path d="M450 0H445V5H450V0Z" fill="#EAAC68"/>
<path d="M460 5H455V10H460V5Z" fill="#EAAC68"/>
<path d="M470 10H465V15H470V10Z" fill="#EAAC68"/>
<path d="M480 15H475V20H480V15Z" fill="#EAAC68"/>
<path d="M445 10H440V15H445V10Z" fill="#C97A32"/>
<path d="M430 10H425V15H430V10Z" fill="#C97A32"/>
<path d="M205 15H125V20H205V15Z" fill="#D88A3D"/>
<path d="M245 10H145V15H245V10Z" fill="#D88A3D"/>
<path d="M205 5H155V10H205V5Z" fill="#D88A3D"/>
<path d="M260 15H180V20H260V15Z" fill="#D88A3D"/>
<path d="M225 0H170V5H225V0Z" fill="#D88A3D"/>
<path d="M240 5H205V10H240V5Z" fill="#D88A3D"/>
<path d="M220 5H205V10H220V5Z" fill="#C97A32"/>
<path d="M215 0H210V5H215H220V0H215Z" fill="#D88A3D"/>
<path d="M225 0H220V5H225H230V0H225Z" fill="#D88A3D"/>
<path d="M197.5 15H160V20H197.5H235V15H197.5Z" fill="#C97A32"/>
<path d="M240 5H225V10H240V5Z" fill="#E5A35D"/>
<path d="M230 0H190V5H230V0Z" fill="#E5A35D"/>
<path d="M250 10H235V15H250V10Z" fill="#E5A35D"/>
<path d="M260 15H245V20H260V15Z" fill="#E5A35D"/>
<path d="M230 0H225V5H230V0Z" fill="#EAAC68"/>
<path d="M240 5H235V10H240V5Z" fill="#EAAC68"/>
<path d="M250 10H245V15H250V10Z" fill="#EAAC68"/>
<path d="M260 15H255V20H260V15Z" fill="#EAAC68"/>
<path d="M225 10H220V15H225V10Z" fill="#C97A32"/>
<path d="M160 10H155V15H160V10Z" fill="#C97A32"/>
<path d="M205 10H165V15H205V10Z" fill="#C97A32"/>
<path d="M590 15H529.952V20H590V15Z" fill="#D88A3D"/>
<path d="M590 10H549.952V15H590V10Z" fill="#D88A3D"/>
<path d="M590 5H559.952V10H590V5Z" fill="#D88A3D"/>
<path d="M590 0H574.952V5H590V0Z" fill="#D88A3D"/>
<path d="M577.476 15H564.952V20H577.476H590V15H577.476Z" fill="#C97A32"/>
<path d="M564.952 10H559.952V15H564.952V10Z" fill="#C97A32"/>
<path d="M589.952 5H584.952V10H589.952V5Z" fill="#C97A32"/>
<path d="M590 10H569.952V15H590V10Z" fill="#C97A32"/>
<path d="M564.952 20H544.904V25H564.952V20Z" fill="#D88A3D"/>
<path d="M549.904 20H544.904V25H549.904V20Z" fill="#C97A32"/>
<path d="M380 15H375V20H380V15Z" fill="#C97A32"/>
<path d="M410 20H405V25H410V20Z" fill="#C97A32"/>
<path d="M485 20H480V25H485V20Z" fill="#C97A32"/>
<path d="M529.952 30H524.952V35H529.952V30Z" fill="#C97A32"/>
<path d="M569.952 40H564.952V45H569.952V40Z" fill="#C97A32"/>
<path d="M529.952 20H524.952V25H529.952V20Z" fill="#C97A32"/>
<path d="M385 20H380V25H385V20Z" fill="#C97A32"/>
<path d="M370 15H355V20H370V15Z" fill="#C97A32"/>
<path d="M109.997 20H104.997V25H109.997V20Z" fill="#D88A3D"/>
<path d="M290 25H270V30H290H310V25H290Z" fill="#C97A32"/>
<path d="M297.5 25H285V30H297.5H310V25H297.5Z" fill="#D88A3D"/>
<path d="M430 25H425V30H430H435V25H430Z" fill="#D88A3D"/>
<path d="M427.5 30H415V35H427.5H440V30H427.5Z" fill="#C97A32"/>
<path d="M280 30H260V35H280H300V30H280Z" fill="#C97A32"/>
<path d="M275 30H270V35H275V30Z" fill="#D88A3D"/>
<path d="M260 30H250V35H260V30Z" fill="#D88A3D"/>
<path d="M445 25H440V30H445V25Z" fill="#C97A32"/>
<path d="M360 35H355V40H360V35Z" fill="#C97A32"/>
<path d="M440 30H435V35H440V30Z" fill="#D88A3D"/>
<path d="M450 30H445V35H450V30Z" fill="#D88A3D"/>
<path d="M140 30H130V35H140H150V30H140Z" fill="#C97A32"/>
<path d="M160 25H155V30H160V25Z" fill="#C97A32"/>
<path d="M240 35H235V40H240V35Z" fill="#C97A32"/>
<path d="M75.0004 35L104.997 35V30L75.0004 30V35Z" fill="#D88A3D"/>
<path d="M165 30H160V35H165V30Z" fill="#D88A3D"/>
<path d="M490 25H485V30H490H495V25H490Z" fill="#D88A3D"/>
<path d="M375 25H370V30H375H380V25H375Z" fill="#D88A3D"/>
<path d="M500 30H495V35H500H505V30H500Z" fill="#D88A3D"/>
<path d="M510 30H505V35H510V30Z" fill="#C97A32"/>
<path d="M75 35H70V40H75V35Z" fill="#D88A3D"/>
<path d="M40 35H35V40H40V35Z" fill="#D88A3D"/>
</svg>
